<svg xmlns="http://www.w3.org/2000/svg" viewBox="0 0 512 512">
  <defs>
    <linearGradient id="bg" x1="0" x2="1" y1="0" y2="1">
      <stop offset="0%" stop-color="#24133a" />
      <stop offset="100%" stop-color="#05030d" />
    </linearGradient>
    <linearGradient id="card" x1="0" x2="1" y1="0" y2="1">
      <stop offset="0%" stop-color="#4c2b68" />
      <stop offset="56%" stop-color="#1a1230" />
      <stop offset="100%" stop-color="#080511" />
    </linearGradient>
    <linearGradient id="gold" x1="0" x2="1" y1="0" y2="1">
      <stop offset="0%" stop-color="#ffe7a8" />
      <stop offset="100%" stop-color="#f0a94e" />
    </linearGradient>
  </defs>
  <rect width="512" height="512" rx="120" fill="url(#bg)" />
  <circle cx="392" cy="118" r="54" fill="#e35f74" fill-opacity="0.78" />
  <circle cx="118" cy="398" r="72" fill="#72ead8" fill-opacity="0.16" />
  <g transform="rotate(-8 256 270)">
    <rect x="144" y="92" width="224" height="328" rx="34" fill="url(#card)" stroke="url(#gold)" stroke-width="12" />
    <rect x="169" y="119" width="174" height="274" rx="22" fill="none" stroke="#f4ce84" stroke-opacity="0.45" stroke-width="6" />
    <circle cx="256" cy="190" r="44" fill="#f4ce84" fill-opacity="0.12" stroke="#f4ce84" stroke-width="6" />
    <path d="M256 146v88M212 190h88" stroke="#ffe7a8" stroke-width="10" stroke-linecap="round" />
    <path d="M205 304c36-38 66-38 102 0M205 332h102" fill="none" stroke="#ffe7a8" stroke-width="10" stroke-linecap="round" />
    <text x="256" y="374" text-anchor="middle" font-family="Georgia, serif" font-size="38" fill="#ffe7a8">TW</text>
  </g>
  <path d="M102 128l16 31 34 5-25 24 6 34-31-16-31 16 6-34-25-24 34-5z" fill="#f4ce84" fill-opacity="0.86" />
</svg>
